<svg width="57" height="57" viewBox="0 0 57 57" fill="none" xmlns="http://www.w3.org/2000/svg">
<path d="M9.5 46.3125V10.6875C9.5 9.11278 10.1256 7.60255 11.2391 6.48905C12.3526 5.37556 13.8628 4.75 15.4375 4.75H47.5V52.25H15.4375C13.8628 52.25 12.3526 51.6244 11.2391 50.5109C10.1256 49.3974 9.5 47.8872 9.5 46.3125ZM9.5 46.3125C9.5 44.7378 10.1256 43.2276 11.2391 42.1141C12.3526 41.0006 13.8628 40.375 15.4375 40.375H47.5" stroke="#AB1FBC" stroke-width="2" stroke-linecap="round" stroke-linejoin="round"/>
<path d="M38 19.475C38 16.625 35.625 14.25 32.775 14.25C30.875 14.25 29.45 14.9625 28.5 16.3875C27.55 14.9625 26.125 14.25 24.225 14.25C21.375 14.25 19 16.625 19 19.475C19 20.9 19.7125 22.325 20.6625 23.275C23.75 26.3625 28.5 30.875 28.5 30.875C28.5 30.875 33.25 26.3625 36.3375 23.5125C37.2875 22.5625 38 21.1375 38 19.475Z" stroke="#AB1FBC" stroke-width="2" stroke-linecap="round" stroke-linejoin="round"/>
</svg>
